<svg preserveAspectRatio="none" width="100%" height="100%" overflow="visible" style="display: block;" viewBox="0 0 29 36" fill="none" xmlns="http://www.w3.org/2000/svg">
<g id="Layer_1" clip-path="url(#clip0_627_168)">
<path id="Vector" d="M28.4197 12.6376C28.348 11.2016 27.9889 10.0459 27.0995 9.25321C26.9232 9.0965 26.2582 8.65019 26.0851 8.65019H22.6974V3.38068C22.6974 2.07384 21.1877 0.15299 20.2233 0.137411C16.3685 0.414175 12.2065 -0.264905 8.38719 0.123664C7.44848 0.218974 6.59463 0.964953 6.09272 2.05918C5.98023 2.30478 5.65987 3.2313 5.65987 3.47232V8.65019H2.27211C1.32024 8.65019 -0.0335488 10.7204 0.00394691 12.0887L0 28.4947C0.151298 30.2359 1.0979 31.6372 2.34512 31.9176L10.0942 31.9194C10.6376 31.8168 11.1717 31.0717 11.2454 30.3157C11.2974 29.7878 11.1849 29.0959 11.2651 28.6019C11.2862 28.4746 11.4941 28.0787 11.5474 28.0787H13.0932V35.181C13.0932 35.1911 13.1847 35.3185 13.1919 35.3185H15.3298V28.0787H16.8757C16.9691 28.0787 17.1362 28.5415 17.1559 28.6963C17.3177 29.9363 16.8046 31.5547 18.1315 31.9194L26.0121 31.9176C27.3284 31.5758 28.2836 30.0673 28.423 28.2198C28.2303 23.1281 28.6723 17.6881 28.4197 12.6376ZM2.71679 13.577C3.02991 12.0868 4.14623 12.6413 4.96587 12.403C5.54607 12.4552 6.21112 12.2903 6.76567 12.5625C7.26692 12.8081 8.62861 14.9663 9.11145 15.6179C9.9153 16.7011 10.7784 17.7284 11.5145 18.9143H3.71931C3.29567 18.9143 2.84309 18.3947 2.71877 17.8338C2.5701 17.1648 2.5747 14.256 2.71679 13.577ZM13.0932 24.5046H9.63968C9.47851 24.5046 9.0654 24.9389 8.99896 25.1699C8.72333 26.1193 9.41076 28.0218 8.12932 28.174C6.67752 28.3463 5.02179 28.0713 3.55091 28.13C3.1674 27.976 2.87598 27.6947 2.73455 27.1595C2.5701 26.539 2.58128 24.0188 2.66351 23.3086C2.74508 22.6066 2.9786 22.1768 3.47131 21.9596L12.1407 21.9367C12.4565 21.9129 13.0932 22.7019 13.0932 23.0841V24.5046ZM13.0932 16.6232L8.78385 10.5756C8.53651 10.1422 8.45034 9.90571 8.42008 9.34119C8.36877 8.39542 8.34048 6.30595 8.42863 5.40509C8.48586 4.8204 8.87792 4.07626 9.31471 3.98186C9.59297 3.9223 9.94227 4.00111 10.2343 3.98003C10.854 3.93604 11.7302 3.79308 12.3328 3.98186C12.5913 4.06343 13.0932 4.70585 13.0932 5.03027V16.6232ZM15.264 16.6232V5.12191C15.264 4.48865 15.9679 3.98278 16.3665 3.90855C17.0217 3.78575 18.4439 3.84256 19.1083 3.98186C19.8082 4.12941 19.9043 5.24838 19.9378 6.03377C19.9964 7.41667 20.1286 9.64361 19.4754 10.714L15.264 16.6232ZM25.6418 26.9111C25.5352 27.7936 24.9497 28.1171 24.3774 28.174C23.2506 28.2867 21.2771 28.3105 20.1621 28.174C18.782 28.0053 19.8299 25.8022 19.1787 24.8702C19.1425 24.8189 18.807 24.5046 18.7834 24.5046H15.3298V23.0841C15.3298 22.6909 15.8896 21.9184 16.2165 21.9367L24.8721 21.9789C25.1806 22.0696 25.4911 22.4847 25.5951 22.8962C25.7076 23.3443 25.7082 26.3585 25.6418 26.9111ZM25.6424 17.7477C25.5688 18.2517 25.0017 18.9143 24.6379 18.9143H16.8428C16.7645 18.8181 17.3855 18.0116 17.4657 17.9035C18.586 16.4078 19.8688 14.3678 21.0186 13.0473C21.2666 12.7613 21.4752 12.556 21.8093 12.4992C22.4994 12.381 24.1952 12.2701 24.8182 12.5231C25.2425 12.6963 25.6109 13.3048 25.6576 13.9197C25.7102 14.6061 25.7319 17.1336 25.6424 17.7477Z" fill="var(--fill-0, white)"/>
</g>
<defs>
<clipPath id="clip0_627_168">
<rect width="28.5" height="35.3186" fill="white"/>
</clipPath>
</defs>
</svg>
