<svg preserveAspectRatio="none" width="100%" height="100%" overflow="visible" style="display: block;" viewBox="0 0 16 16" fill="none" xmlns="http://www.w3.org/2000/svg">
<g id="Icon" clip-path="url(#clip0_627_179)">
<path id="Vector" d="M9.22133 11.0453C9.35902 11.1086 9.51413 11.123 9.66113 11.0863C9.80812 11.0496 9.93822 10.9639 10.03 10.8433L10.2667 10.5333C10.3909 10.3677 10.5519 10.2333 10.737 10.1408C10.9222 10.0482 11.1263 10 11.3333 10H13.3333C13.687 10 14.0261 10.1405 14.2761 10.3905C14.5262 10.6406 14.6667 10.9797 14.6667 11.3333V13.3333C14.6667 13.687 14.5262 14.0261 14.2761 14.2761C14.0261 14.5262 13.687 14.6667 13.3333 14.6667C10.1507 14.6667 7.09849 13.4024 4.84805 11.1519C2.59762 8.90151 1.33333 5.84926 1.33333 2.66667C1.33333 2.31304 1.47381 1.97391 1.72386 1.72386C1.97391 1.47381 2.31304 1.33333 2.66667 1.33333H4.66667C5.02029 1.33333 5.35943 1.47381 5.60948 1.72386C5.85952 1.97391 6 2.31304 6 2.66667V4.66667C6 4.87366 5.95181 5.07781 5.85924 5.26295C5.76667 5.44809 5.63226 5.60914 5.46667 5.73333L5.15467 5.96733C5.03228 6.06078 4.94601 6.19372 4.91053 6.34357C4.87504 6.49341 4.89252 6.65092 4.96 6.78933C5.87112 8.63991 7.36962 10.1365 9.22133 11.0453Z" stroke="var(--stroke-0, #4A5565)" stroke-width="1.33333" stroke-linecap="round" stroke-linejoin="round"/>
</g>
<defs>
<clipPath id="clip0_627_179">
<rect width="16" height="16" fill="white"/>
</clipPath>
</defs>
</svg>
