<svg preserveAspectRatio="none" width="100%" height="100%" overflow="visible" style="display: block;" viewBox="0 0 24 24" fill="none" xmlns="http://www.w3.org/2000/svg">
<g id="Icon" clip-path="url(#clip0_627_194)">
<path id="Vector" d="M11.017 2.814C11.0598 2.5846 11.1816 2.37742 11.3611 2.22832C11.5406 2.07922 11.7666 1.99761 12 1.99761C12.2334 1.99761 12.4594 2.07922 12.6389 2.22832C12.8184 2.37742 12.9402 2.5846 12.983 2.814L14.034 8.372C14.1086 8.76715 14.3007 9.13062 14.585 9.41497C14.8694 9.69932 15.2329 9.89135 15.628 9.966L21.186 11.017C21.4154 11.0598 21.6226 11.1816 21.7717 11.3611C21.9208 11.5406 22.0024 11.7666 22.0024 12C22.0024 12.2334 21.9208 12.4594 21.7717 12.6389C21.6226 12.8184 21.4154 12.9402 21.186 12.983L15.628 14.034C15.2329 14.1086 14.8694 14.3007 14.585 14.585C14.3007 14.8694 14.1086 15.2329 14.034 15.628L12.983 21.186C12.9402 21.4154 12.8184 21.6226 12.6389 21.7717C12.4594 21.9208 12.2334 22.0024 12 22.0024C11.7666 22.0024 11.5406 21.9208 11.3611 21.7717C11.1816 21.6226 11.0598 21.4154 11.017 21.186L9.966 15.628C9.89135 15.2329 9.69932 14.8694 9.41497 14.585C9.13062 14.3007 8.76715 14.1086 8.372 14.034L2.814 12.983C2.5846 12.9402 2.37742 12.8184 2.22832 12.6389C2.07922 12.4594 1.99761 12.2334 1.99761 12C1.99761 11.7666 2.07922 11.5406 2.22832 11.3611C2.37742 11.1816 2.5846 11.0598 2.814 11.017L8.372 9.966C8.76715 9.89135 9.13062 9.69932 9.41497 9.41497C9.69932 9.13062 9.89135 8.76715 9.966 8.372L11.017 2.814Z" stroke="var(--stroke-0, #0080FF)" stroke-width="2" stroke-linecap="round" stroke-linejoin="round"/>
<path id="Vector_2" d="M20 2V6" stroke="var(--stroke-0, #0080FF)" stroke-width="2" stroke-linecap="round" stroke-linejoin="round"/>
<path id="Vector_3" d="M22 4H18" stroke="var(--stroke-0, #0080FF)" stroke-width="2" stroke-linecap="round" stroke-linejoin="round"/>
<path id="Vector_4" d="M4 22C5.10457 22 6 21.1046 6 20C6 18.8954 5.10457 18 4 18C2.89543 18 2 18.8954 2 20C2 21.1046 2.89543 22 4 22Z" stroke="var(--stroke-0, #0080FF)" stroke-width="2" stroke-linecap="round" stroke-linejoin="round"/>
</g>
<defs>
<clipPath id="clip0_627_194">
<rect width="24" height="24" fill="white"/>
</clipPath>
</defs>
</svg>
