<svg preserveAspectRatio="none" width="100%" height="100%" overflow="visible" style="display: block;" viewBox="0 0 25 15" fill="none" xmlns="http://www.w3.org/2000/svg">
<g id="twitter">
<path id="Vector" d="M22.0389 3.70576C22.0545 3.86839 22.0545 4.03105 22.0545 4.19368C22.0545 9.15405 16.989 14.8696 7.73077 14.8696C4.87848 14.8696 2.22884 14.2538 0 13.1851C0.405256 13.22 0.794872 13.2316 1.21572 13.2316C3.5692 13.2316 5.73572 12.6391 7.46579 11.6285C5.25255 11.5936 3.39778 10.5133 2.75874 9.02629C3.07049 9.06112 3.38219 9.08436 3.70953 9.08436C4.16152 9.08436 4.61355 9.03787 5.03435 8.9566C2.7276 8.60806 0.997477 7.09789 0.997477 5.27404V5.22759C1.66766 5.5064 2.44703 5.68065 3.27304 5.70385C1.91704 5.03006 1.02866 3.88001 1.02866 2.57891C1.02866 1.88192 1.27799 1.24299 1.71444 0.685377C4.19265 2.96228 7.91778 4.44921 12.0948 4.61187C12.0169 4.33307 11.9702 4.04267 11.9702 3.75225C11.9702 1.68442 14.2146 2.61901e-08 17.0045 2.61901e-08C18.454 2.61901e-08 19.7632 0.453056 20.6829 1.18492C21.8206 1.02229 22.9116 0.708619 23.878 0.278806C23.5039 1.15009 22.709 1.88195 21.6648 2.34659C22.6779 2.26531 23.6598 2.05617 24.5638 1.76577C23.8781 2.50922 23.0208 3.17136 22.0389 3.70576V3.70576Z" fill="var(--fill-0, white)"/>
</g>
</svg>
