<svg preserveAspectRatio="none" width="100%" height="100%" overflow="visible" style="display: block;" viewBox="0 0 22 15" fill="none" xmlns="http://www.w3.org/2000/svg">
<g id="insta">
<path id="Vector" d="M10.5297 3.62241C7.54235 3.62241 5.13274 5.32454 5.13274 7.43478C5.13274 9.54502 7.54235 11.2472 10.5297 11.2472C13.517 11.2472 15.9266 9.54502 15.9266 7.43478C15.9266 5.32454 13.517 3.62241 10.5297 3.62241ZM10.5297 9.91332C8.59919 9.91332 7.02097 8.80179 7.02097 7.43478C7.02097 6.06777 8.59449 4.95625 10.5297 4.95625C12.4649 4.95625 14.0384 6.06777 14.0384 7.43478C14.0384 8.80179 12.4602 9.91332 10.5297 9.91332V9.91332ZM17.4062 3.46647C17.4062 3.96085 16.8426 4.35569 16.1474 4.35569C15.4475 4.35569 14.8886 3.95753 14.8886 3.46647C14.8886 2.97541 15.4522 2.57725 16.1474 2.57725C16.8426 2.57725 17.4062 2.97541 17.4062 3.46647ZM20.9807 4.36896C20.9009 3.1778 20.5157 2.12268 19.2804 1.25337C18.0497 0.384057 16.5561 0.111982 14.8698 0.0522584C13.1319 -0.0174194 7.92281 -0.0174194 6.18489 0.0522584C4.50333 0.108664 3.00966 0.380739 1.77432 1.25005C0.538991 2.11937 0.158527 3.17449 0.0739791 4.36564C-0.0246597 5.5933 -0.0246597 9.27295 0.0739791 10.5006C0.15383 11.6918 0.538991 12.7469 1.77432 13.6162C3.00966 14.4855 4.49863 14.7576 6.18489 14.8173C7.92281 14.887 13.1319 14.887 14.8698 14.8173C16.5561 14.7609 18.0497 14.4888 19.2804 13.6162C20.511 12.7469 20.8962 11.6918 20.9807 10.5006C21.0793 9.27295 21.0793 5.59662 20.9807 4.36896V4.36896ZM18.7355 11.8178C18.3691 12.4682 17.6599 12.9692 16.7345 13.2313C15.3489 13.6195 12.0609 13.5299 10.5297 13.5299C8.99844 13.5299 5.70578 13.6162 4.32484 13.2313C3.40421 12.9725 2.69495 12.4715 2.32388 11.8178C1.77432 10.839 1.90115 8.51645 1.90115 7.43478C1.90115 6.35312 1.77902 4.02721 2.32388 3.05172C2.69026 2.40139 3.39952 1.90038 4.32484 1.63826C5.71048 1.25005 8.99844 1.33964 10.5297 1.33964C12.0609 1.33964 15.3536 1.25337 16.7345 1.63826C17.6552 1.89706 18.3644 2.39808 18.7355 3.05172C19.2851 4.03053 19.1582 6.35312 19.1582 7.43478C19.1582 8.51645 19.2851 10.8424 18.7355 11.8178Z" fill="var(--fill-0, white)"/>
</g>
</svg>
