<svg preserveAspectRatio="none" width="100%" height="100%" overflow="visible" style="display: block;" viewBox="0 0 29 26" fill="none" xmlns="http://www.w3.org/2000/svg">
<g id="Layer_1" clip-path="url(#clip0_627_216)">
<path id="Vector" d="M28.4197 9.24872C28.348 8.19776 27.9889 7.35204 27.0995 6.7719C26.9232 6.65721 26.2582 6.33059 26.0851 6.33059H22.6974V2.47419C22.6974 1.5178 21.1877 0.112055 20.2233 0.100654C16.3685 0.303199 12.2065 -0.193774 8.38719 0.0905935C7.44848 0.160344 6.59463 0.706277 6.09272 1.50707C5.98023 1.68681 5.65987 2.36487 5.65987 2.54125V6.33059H2.27211C1.32024 6.33059 -0.0335488 7.84566 0.00394691 8.84698L0 20.8535C0.151298 22.1278 1.0979 23.1532 2.34512 23.3585L10.0942 23.3598C10.6376 23.2847 11.1717 22.7394 11.2454 22.1861C11.2974 21.7998 11.1849 21.2934 11.2651 20.9319C11.2862 20.8387 11.4941 20.549 11.5474 20.549H13.0932V25.7468C13.0932 25.7541 13.1847 25.8474 13.1919 25.8474H15.3298V20.549H16.8757C16.9691 20.549 17.1362 20.8877 17.1559 21.001C17.3177 21.9085 16.8046 23.0929 18.1315 23.3598L26.0121 23.3585C27.3284 23.1083 28.2836 22.0044 28.423 20.6523C28.2303 16.926 28.6723 12.9448 28.4197 9.24872ZM2.71679 9.93616C3.02991 8.84564 4.14623 9.2514 4.96587 9.07702C5.54607 9.11525 6.21113 8.99453 6.76567 9.19372C7.26692 9.37346 8.62861 10.9529 9.11145 11.4298C9.9153 12.2225 10.7784 12.9743 11.5145 13.8422H3.71931C3.29567 13.8422 2.84309 13.4619 2.71877 13.0515C2.5701 12.5619 2.5747 10.4331 2.71679 9.93616ZM13.0932 17.9333H9.63968C9.47851 17.9333 9.0654 18.2512 8.99896 18.4203C8.72334 19.1151 9.41076 20.5074 8.12933 20.6187C6.67752 20.7448 5.02179 20.5436 3.55091 20.5865C3.1674 20.4739 2.87598 20.268 2.73455 19.8763C2.5701 19.4222 2.58128 17.5779 2.66351 17.0581C2.74508 16.5444 2.9786 16.2298 3.47131 16.0709L12.1407 16.0541C12.4565 16.0367 13.0932 16.6141 13.0932 16.8938V17.9333ZM13.0932 12.1655L8.78385 7.73969C8.53651 7.42246 8.45034 7.24942 8.42008 6.83628C8.36877 6.14414 8.34049 4.61499 8.42863 3.95572C8.48586 3.52782 8.87792 2.98323 9.31472 2.91415C9.59297 2.87056 9.94227 2.92824 10.2343 2.91281C10.854 2.88062 11.7302 2.77599 12.3328 2.91415C12.5913 2.97384 13.0932 3.44399 13.0932 3.68141V12.1655ZM15.264 12.1655V3.74848C15.264 3.28504 15.9679 2.91482 16.3665 2.8605C17.0217 2.77063 18.4439 2.81221 19.1083 2.91415C19.8082 3.02213 19.9043 3.84103 19.9378 4.4158C19.9964 5.42786 20.1286 7.05761 19.4754 7.84096L15.264 12.1655ZM25.6418 19.6945C25.5352 20.3404 24.9498 20.5772 24.3774 20.6187C23.2506 20.7012 21.2772 20.7187 20.1621 20.6187C18.782 20.4953 19.8299 18.883 19.1787 18.2009C19.1425 18.1634 18.807 17.9333 18.7834 17.9333H15.3298V16.8938C15.3298 16.6061 15.8896 16.0407 16.2166 16.0541L24.8721 16.0849C25.1806 16.1513 25.4911 16.4552 25.5951 16.7563C25.7076 17.0843 25.7082 19.2901 25.6418 19.6945ZM25.6424 12.9884C25.5688 13.3573 25.0017 13.8422 24.6379 13.8422H16.8428C16.7645 13.7718 17.3855 13.1816 17.4657 13.1024C18.586 12.0079 19.8688 10.515 21.0186 9.54851C21.2666 9.33926 21.4752 9.18903 21.8093 9.14744C22.4994 9.06093 24.1952 8.97977 24.8182 9.16488C25.2425 9.29164 25.6109 9.73697 25.6576 10.187C25.7102 10.6893 25.7319 12.5391 25.6424 12.9884Z" fill="var(--fill-0, white)"/>
</g>
<defs>
<clipPath id="clip0_627_216">
<rect width="28.5" height="25.8473" fill="white"/>
</clipPath>
</defs>
</svg>
