<svg preserveAspectRatio="none" width="100%" height="100%" overflow="visible" style="display: block;" viewBox="0 0 21 18" fill="none" xmlns="http://www.w3.org/2000/svg">
<g id="logo" clip-path="url(#clip0_630_422)">
<path id="Vector" d="M20.9409 6.44089C20.888 5.70901 20.6234 5.12004 19.9681 4.71604C19.8382 4.63617 19.3481 4.40871 19.2206 4.40871H16.7244V1.72312C16.7244 1.0571 15.612 0.078139 14.9014 0.070199C12.061 0.211251 8.99425 -0.13484 6.18003 0.0631931C5.48836 0.111767 4.8592 0.491954 4.48937 1.04962C4.40649 1.17479 4.17043 1.64699 4.17043 1.76983V4.40871H1.67418C0.97281 4.40871 -0.0247201 5.4638 0.00290825 6.16112L0 14.5224C0.111483 15.4098 0.808979 16.124 1.72799 16.2669L7.43785 16.2678C7.83822 16.2155 8.23181 15.8358 8.28609 15.4505C8.32439 15.1814 8.2415 14.8288 8.30063 14.5771C8.31615 14.5121 8.46931 14.3104 8.50857 14.3104H9.64764V17.9301C9.64764 17.9352 9.71501 18.0001 9.72035 18.0001H11.2956V14.3104H12.4347C12.5035 14.3104 12.6267 14.5462 12.6412 14.6252C12.7604 15.2571 12.3824 16.0819 13.36 16.2678L19.1668 16.2669C20.1367 16.0927 20.8405 15.3239 20.9433 14.3823C20.8013 11.7873 21.127 9.01485 20.9409 6.44089ZM2.00185 6.91962C2.23257 6.16019 3.05512 6.44276 3.65907 6.32132C4.08658 6.34794 4.57662 6.26387 4.98523 6.40259C5.35458 6.52776 6.35792 7.62769 6.7137 7.95976C7.30601 8.51183 7.94195 9.0354 8.48434 9.63978H2.74054C2.42839 9.63978 2.09491 9.37495 2.0033 9.08911C1.89376 8.74816 1.89715 7.26571 2.00185 6.91962ZM9.64764 12.4888H7.10292C6.98417 12.4888 6.67977 12.7102 6.63081 12.8279C6.42772 13.3118 6.93424 14.2814 5.99003 14.3589C4.92028 14.4468 3.70027 14.3066 2.61646 14.3365C2.33387 14.2581 2.11915 14.1147 2.01493 13.8419C1.89376 13.5257 1.902 12.2413 1.96259 11.8793C2.02269 11.5216 2.19476 11.3025 2.55781 11.1918L8.94578 11.1801C9.17844 11.168 9.64764 11.5701 9.64764 11.7649V12.4888ZM9.64764 8.47213L6.47231 5.39C6.29006 5.16909 6.22657 5.04858 6.20427 4.76088C6.16646 4.27887 6.14562 3.21398 6.21057 2.75486C6.25274 2.45687 6.54163 2.07762 6.86347 2.02951C7.06851 1.99915 7.32589 2.03932 7.5411 2.02858C7.99769 2.00616 8.64332 1.9333 9.08732 2.02951C9.27781 2.07108 9.64764 2.39849 9.64764 2.56383V8.47213ZM11.2472 8.47213V2.61053C11.2472 2.2878 11.7658 2.02998 12.0595 1.99215C12.5423 1.92956 13.5903 1.95852 14.0798 2.02951C14.5955 2.10471 14.6663 2.67499 14.691 3.07526C14.7342 3.78005 14.8316 4.91501 14.3503 5.46053L11.2472 8.47213ZM18.8939 13.7153C18.8154 14.1651 18.384 14.33 17.9623 14.3589C17.132 14.4164 15.6779 14.4285 14.8563 14.3589C13.8394 14.273 14.6115 13.1502 14.1317 12.6752C14.105 12.649 13.8578 12.4888 13.8404 12.4888H11.2956V11.7649C11.2956 11.5645 11.7081 11.1708 11.949 11.1801L18.3268 11.2016C18.5542 11.2479 18.7829 11.4594 18.8595 11.6691C18.9424 11.8975 18.9429 13.4337 18.8939 13.7153ZM18.8944 9.04521C18.8401 9.30209 18.4223 9.63978 18.1543 9.63978H12.4105C12.3528 9.59074 12.8104 9.17972 12.8695 9.12461C13.695 8.36237 14.6401 7.3227 15.4874 6.64966C15.6701 6.50394 15.8238 6.39932 16.07 6.37036C16.5785 6.31011 17.8281 6.2536 18.2871 6.38251C18.5997 6.47078 18.8712 6.78091 18.9056 7.0943C18.9444 7.44413 18.9603 8.73228 18.8944 9.04521Z" fill="var(--fill-0, white)"/>
</g>
<defs>
<clipPath id="clip0_630_422">
<rect width="21" height="18" fill="white"/>
</clipPath>
</defs>
</svg>
