<svg preserveAspectRatio="none" width="100%" height="100%" overflow="visible" style="display: block;" viewBox="0 0 25 14" fill="none" xmlns="http://www.w3.org/2000/svg">
<g id="twitter">
<path id="Vector" d="M21.9817 3.48905C21.9972 3.64217 21.9972 3.79532 21.9972 3.94844C21.9972 8.61873 16.9449 14 7.71069 14C4.8658 14 2.22305 13.4203 0 12.4141C0.404204 12.4469 0.792808 12.4578 1.21256 12.4578C3.55993 12.4578 5.72082 11.9 7.4464 10.9485C5.23891 10.9156 3.38896 9.89845 2.75157 8.49844C3.06251 8.53123 3.3734 8.55311 3.6999 8.55311C4.15071 8.55311 4.60157 8.50934 5.02128 8.43282C2.72052 8.10467 0.994886 6.68281 0.994886 4.96562V4.92189C1.66333 5.18439 2.44068 5.34845 3.26454 5.3703C1.91206 4.73591 1.02599 3.65311 1.02599 2.4281C1.02599 1.77186 1.27467 1.1703 1.70998 0.645296C4.18176 2.78904 7.89721 4.18902 12.0634 4.34217C11.9857 4.07967 11.9391 3.80626 11.9391 3.53282C11.9391 1.58592 14.1777 2.46585e-08 16.9603 2.46585e-08C18.4061 2.46585e-08 19.7119 0.426561 20.6291 1.11562C21.7639 0.962507 22.8521 0.66718 23.816 0.262502C23.4429 1.08283 22.6501 1.7719 21.6085 2.20937C22.619 2.13284 23.5984 1.93592 24.5 1.66251C23.8161 2.36248 22.961 2.9859 21.9817 3.48905V3.48905Z" fill="var(--fill-0, white)"/>
</g>
</svg>
