<svg preserveAspectRatio="none" width="100%" height="100%" overflow="visible" style="display: block;" viewBox="0 0 21 14" fill="none" xmlns="http://www.w3.org/2000/svg">
<g id="insta">
<path id="Vector" d="M10.5023 3.41058C7.52276 3.41058 5.11941 5.01317 5.11941 7C5.11941 8.98683 7.52276 10.5894 10.5023 10.5894C13.4819 10.5894 15.8853 8.98683 15.8853 7C15.8853 5.01317 13.4819 3.41058 10.5023 3.41058ZM10.5023 9.33359C8.57685 9.33359 7.00273 8.28707 7.00273 7C7.00273 5.71293 8.57217 4.66641 10.5023 4.66641C12.4325 4.66641 14.002 5.71293 14.002 7C14.002 8.28707 12.4278 9.33359 10.5023 9.33359V9.33359ZM17.361 3.26375C17.361 3.72922 16.7988 4.10097 16.1055 4.10097C15.4074 4.10097 14.8499 3.7261 14.8499 3.26375C14.8499 2.80141 15.4121 2.42653 16.1055 2.42653C16.7988 2.42653 17.361 2.80141 17.361 3.26375ZM20.9262 4.11347C20.8466 2.99197 20.4624 1.99855 19.2303 1.18007C18.0028 0.361598 16.5131 0.105433 14.8312 0.0492023C13.0978 -0.0164007 7.90223 -0.0164007 6.16882 0.0492023C4.49163 0.10231 3.00184 0.358474 1.76972 1.17695C0.537591 1.99543 0.158115 2.98884 0.073787 4.11034C-0.0245956 5.26621 -0.0245956 8.73067 0.073787 9.88653C0.15343 11.008 0.537591 12.0015 1.76972 12.8199C3.00184 13.6384 4.48695 13.8946 6.16882 13.9508C7.90223 14.0164 13.0978 14.0164 14.8312 13.9508C16.5131 13.8977 18.0028 13.6415 19.2303 12.8199C20.4577 12.0015 20.8419 11.008 20.9262 9.88653C21.0246 8.73067 21.0246 5.26933 20.9262 4.11347V4.11347ZM18.6868 11.1267C18.3214 11.739 17.614 12.2108 16.6911 12.4575C15.309 12.8231 12.0296 12.7387 10.5023 12.7387C8.97507 12.7387 5.69096 12.8199 4.31361 12.4575C3.39537 12.2139 2.68795 11.7422 2.31785 11.1267C1.76972 10.2052 1.89621 8.01841 1.89621 7C1.89621 5.98159 1.7744 3.7917 2.31785 2.87326C2.68327 2.26096 3.39069 1.78924 4.31361 1.54245C5.69565 1.17695 8.97507 1.2613 10.5023 1.2613C12.0296 1.2613 15.3137 1.18007 16.6911 1.54245C17.6093 1.78612 18.3167 2.25784 18.6868 2.87326C19.235 3.79482 19.1085 5.98159 19.1085 7C19.1085 8.01841 19.235 10.2083 18.6868 11.1267Z" fill="var(--fill-0, white)"/>
</g>
</svg>
