<svg preserveAspectRatio="none" width="100%" height="100%" overflow="visible" style="display: block;" viewBox="0 0 42 28" fill="none" xmlns="http://www.w3.org/2000/svg">
<g id="Group 6">
<path id="Ellipse" d="M20.5147 0.75005C26.0517 0.750107 31.0307 2.25076 34.6036 4.63774C38.1815 7.02814 40.2783 10.2486 40.2784 13.7051C40.2784 17.1617 38.1815 20.3821 34.6036 22.7725C31.0307 25.1595 26.0517 26.6611 20.5147 26.6612C14.9776 26.6612 9.99783 25.1596 6.42487 22.7725C2.84706 20.3821 0.750061 17.1616 0.750061 13.7051C0.750174 10.2487 2.847 7.02813 6.42487 4.63774C9.99783 2.25069 14.9776 0.75005 20.5147 0.75005Z" stroke="var(--stroke-0, white)" stroke-opacity="0.3" stroke-width="1.5"/>
<g id="Group 4">
<mask id="mask0_627_156" style="mask-type:alpha" maskUnits="userSpaceOnUse" x="0" y="0" width="42" height="28">
<path id="Ellipse_2" d="M20.5147 0.75005C26.0517 0.750107 31.0307 2.25076 34.6036 4.63774C38.1815 7.02814 40.2783 10.2486 40.2784 13.7051C40.2784 17.1617 38.1815 20.3821 34.6036 22.7725C31.0307 25.1595 26.0517 26.6611 20.5147 26.6612C14.9776 26.6612 9.99783 25.1596 6.42487 22.7725C2.84706 20.3821 0.750061 17.1616 0.750061 13.7051C0.750174 10.2487 2.847 7.02813 6.42487 4.63774C9.99783 2.25069 14.9776 0.75005 20.5147 0.75005Z" stroke="var(--stroke-0, white)" stroke-width="1.5"/>
</mask>
<g mask="url(#mask0_627_156)">
<rect id="Rectangle 4" x="-10.2572" y="-1.71322" width="35.9001" height="31.6936" fill="var(--fill-0, white)"/>
<rect id="Rectangle 5" x="7.69287" y="15.4185" width="35.9001" height="31.6936" fill="var(--fill-0, white)"/>
</g>
</g>
<g id="icon/arrow/chevron-right">
<path id="Mask" d="M21.4773 13.7053L17.2837 10.9036C16.9022 10.6487 16.9022 10.2355 17.2837 9.98065C17.6652 9.72578 18.2837 9.72578 18.6652 9.98065L23.5496 13.2438C23.9311 13.4987 23.9311 13.9119 23.5496 14.1668L18.6652 17.43C18.2837 17.6848 17.6652 17.6848 17.2837 17.43C16.9022 17.1751 16.9022 16.7619 17.2837 16.507L21.4773 13.7053Z" fill="var(--fill-0, white)"/>
</g>
</g>
</svg>
