<svg preserveAspectRatio="none" width="100%" height="100%" overflow="visible" style="display: block;" viewBox="0 0 16 15" fill="none" xmlns="http://www.w3.org/2000/svg">
<g id="insta">
<path id="Vector" d="M7.92403 3.56945C5.67593 3.56945 3.8626 5.2467 3.8626 7.32609C3.8626 9.40548 5.67593 11.0827 7.92403 11.0827C10.1721 11.0827 11.9855 9.40548 11.9855 7.32609C11.9855 5.2467 10.1721 3.56945 7.92403 3.56945ZM7.92403 9.76839C6.47125 9.76839 5.28357 8.67311 5.28357 7.32609C5.28357 5.97906 6.46771 4.88379 7.92403 4.88379C9.38035 4.88379 10.5645 5.97906 10.5645 7.32609C10.5645 8.67311 9.37682 9.76839 7.92403 9.76839V9.76839ZM13.0989 3.41579C13.0989 3.90294 12.6747 4.29201 12.1516 4.29201C11.6249 4.29201 11.2043 3.89967 11.2043 3.41579C11.2043 2.93191 11.6285 2.53957 12.1516 2.53957C12.6747 2.53957 13.0989 2.93191 13.0989 3.41579ZM15.7889 4.30509C15.7288 3.13134 15.4389 2.09165 14.5093 1.23505C13.5832 0.378442 12.4591 0.110345 11.1901 0.0514944C9.88229 -0.0171647 5.96224 -0.0171647 4.65439 0.0514944C3.38894 0.107076 2.26489 0.375173 1.33525 1.23178C0.405613 2.08838 0.119298 3.12807 0.0556724 4.30182C-0.0185574 5.51153 -0.0185574 9.13738 0.0556724 10.3471C0.115763 11.5208 0.405613 12.5605 1.33525 13.4171C2.26489 14.2737 3.38541 14.5418 4.65439 14.6007C5.96224 14.6693 9.88229 14.6693 11.1901 14.6007C12.4591 14.5451 13.5832 14.277 14.5093 13.4171C15.4354 12.5605 15.7252 11.5208 15.7889 10.3471C15.8631 9.13738 15.8631 5.5148 15.7889 4.30509V4.30509ZM14.0992 11.6451C13.8235 12.2859 13.2898 12.7796 12.5934 13.0379C11.5507 13.4204 9.07636 13.3321 7.92403 13.3321C6.7717 13.3321 4.29384 13.4171 3.25462 13.0379C2.56181 12.7828 2.02806 12.2892 1.74882 11.6451C1.33525 10.6806 1.43069 8.39194 1.43069 7.32609C1.43069 6.26024 1.33879 3.96833 1.74882 3.0071C2.02453 2.36629 2.55828 1.87259 3.25462 1.61431C4.29738 1.23178 6.7717 1.32005 7.92403 1.32005C9.07636 1.32005 11.5542 1.23505 12.5934 1.61431C13.2863 1.86932 13.82 2.36302 14.0992 3.0071C14.5128 3.9716 14.4174 6.26024 14.4174 7.32609C14.4174 8.39194 14.5128 10.6838 14.0992 11.6451Z" fill="var(--fill-0, white)"/>
</g>
</svg>
