<svg preserveAspectRatio="none" width="100%" height="100%" overflow="visible" style="display: block;" viewBox="0 0 87 35" fill="none" xmlns="http://www.w3.org/2000/svg">
<g id="Group 6">
<path id="Ellipse" d="M43.4678 0.75C55.4016 0.750021 66.1717 2.64446 73.9307 5.68066C77.8124 7.19966 80.9026 8.98991 83.0098 10.9395C85.1161 12.8882 86.1856 14.9402 86.1856 17.0098C86.1855 19.0793 85.1161 21.1313 83.0098 23.0801C80.9026 25.0296 77.8123 26.8199 73.9307 28.3389C66.1717 31.3751 55.4016 33.2695 43.4678 33.2695C31.5339 33.2695 20.7638 31.375 13.0049 28.3389C9.12309 26.8199 6.03206 25.0297 3.92481 23.0801C1.81861 21.1314 0.750055 19.0792 0.750007 17.0098C0.750007 14.9403 1.81865 12.8881 3.92481 10.9395C6.03206 8.98987 9.12309 7.19968 13.0049 5.68066C20.7638 2.64447 31.5339 0.75 43.4678 0.75Z" stroke="var(--stroke-0, white)" stroke-opacity="0.3" stroke-width="1.5"/>
<g id="Group 4">
<mask id="mask0_627_51" style="mask-type:alpha" maskUnits="userSpaceOnUse" x="0" y="0" width="87" height="35">
<path id="Ellipse_2" d="M43.4678 0.75C55.4016 0.750021 66.1717 2.64446 73.9307 5.68066C77.8124 7.19966 80.9026 8.98991 83.0098 10.9395C85.1161 12.8882 86.1856 14.9402 86.1856 17.0098C86.1855 19.0793 85.1161 21.1313 83.0098 23.0801C80.9026 25.0296 77.8123 26.8199 73.9307 28.3389C66.1717 31.3751 55.4016 33.2695 43.4678 33.2695C31.5339 33.2695 20.7638 31.375 13.0049 28.3389C9.12309 26.8199 6.03206 25.0297 3.92481 23.0801C1.81861 21.1314 0.750055 19.0792 0.750007 17.0098C0.750007 14.9403 1.81865 12.8881 3.92481 10.9395C6.03206 8.98987 9.12309 7.19968 13.0049 5.68066C20.7638 2.64447 31.5339 0.75 43.4678 0.75Z" stroke="var(--stroke-0, white)" stroke-width="1.5"/>
</mask>
<g mask="url(#mask0_627_51)">
<rect id="Rectangle 4" x="-21.7338" y="-2.12627" width="76.0683" height="39.3348" fill="var(--fill-0, white)"/>
<rect id="Rectangle 5" x="16.3003" y="19.1359" width="76.0683" height="39.3348" fill="var(--fill-0, white)"/>
</g>
</g>
<g id="icon/arrow/chevron-right">
<path id="Mask" d="M45.508 17.0095L36.6222 13.5323C35.8138 13.216 35.8138 12.7032 36.6222 12.3868C37.4305 12.0705 38.7411 12.0705 39.5494 12.3868L49.8989 16.4367C50.7072 16.7531 50.7072 17.2659 49.8989 17.5822L39.5494 21.6321C38.7411 21.9485 37.4305 21.9485 36.6222 21.6321C35.8138 21.3158 35.8138 20.803 36.6222 20.4867L45.508 17.0095Z" fill="var(--fill-0, white)"/>
</g>
</g>
</svg>
