<svg preserveAspectRatio="none" width="100%" height="100%" overflow="visible" style="display: block;" viewBox="0 0 21 15" fill="none" xmlns="http://www.w3.org/2000/svg">
<g id="google-icon">
<path id="Shape" d="M20.6336 7.60016C20.6336 6.98886 20.5634 6.54277 20.4113 6.08017H10.5273V8.83927H16.329C16.2121 9.52494 15.5805 10.5576 14.1768 11.2514L14.1571 11.3438L17.2823 13.0536L17.4988 13.0689C19.4872 11.7719 20.6336 9.86362 20.6336 7.60016" fill="var(--fill-0, white)"/>
<path id="Shape_2" d="M10.5272 14.8696C13.3696 14.8696 15.7557 14.2087 17.4987 13.0688L14.1767 11.2513C13.2877 11.6892 12.0946 11.9948 10.5272 11.9948C7.74336 11.9948 5.38057 10.6979 4.53831 8.9053L4.41485 8.91271L1.16529 10.6888L1.12279 10.7722C2.85393 13.2009 6.40984 14.8696 10.5272 14.8696" fill="var(--fill-0, white)"/>
<path id="Shape_3" d="M4.53842 8.905C4.31618 8.4424 4.18756 7.94671 4.18756 7.43456C4.18756 6.92235 4.31618 6.42672 4.52673 5.96412L4.52084 5.86559L1.23055 4.06097L1.1229 4.09714C0.409413 5.10498 1.2207e-05 6.23674 1.2207e-05 7.43456C1.2207e-05 8.63238 0.409413 9.76408 1.1229 10.7719L4.53842 8.905" fill="var(--fill-0, white)"/>
<path id="Shape_4" d="M10.5272 2.87476C12.504 2.87476 13.8374 3.4778 14.5978 3.98175L17.5688 1.93304C15.7441 0.73522 13.3696 0 10.5272 0C6.40984 0 2.85393 1.66868 1.12279 4.09736L4.52661 5.96434C5.38057 4.17173 7.74336 2.87476 10.5272 2.87476" fill="var(--fill-0, white)"/>
</g>
</svg>
