<svg preserveAspectRatio="none" width="100%" height="100%" overflow="visible" style="display: block;" viewBox="0 0 28 25" fill="none" xmlns="http://www.w3.org/2000/svg">
<path id="Vector" d="M27.9212 8.9452C27.8507 7.9287 27.4978 7.1107 26.6241 6.54958C26.4509 6.43865 25.7975 6.12274 25.6275 6.12274H22.2992V2.39275C22.2992 1.46771 20.816 0.108051 19.8685 0.097023C16.0813 0.292928 11.9923 -0.187753 8.24005 0.0872926C7.31781 0.154757 6.47894 0.682793 5.98583 1.45733C5.87531 1.63118 5.56058 2.28701 5.56058 2.45762V6.12274H2.23224C1.29708 6.12274 -0.0329602 7.58814 0.00387767 8.55664L0 20.1695C0.148644 21.4021 1.07864 22.3939 2.30398 22.5924L9.91714 22.5937C10.451 22.5211 10.9757 21.9937 11.0481 21.4585C11.0992 21.0849 10.9887 20.5951 11.0675 20.2454C11.0882 20.1553 11.2924 19.875 11.3448 19.875H12.8635V24.9024C12.8635 24.9096 12.9534 24.9997 12.9605 24.9997H15.0609V19.875H16.5796C16.6714 19.875 16.8355 20.2026 16.8549 20.3123C17.0139 21.1899 16.5098 22.3355 17.8134 22.5937L25.5558 22.5924C26.849 22.3505 27.7874 21.2827 27.9244 19.9749C27.735 16.3708 28.1693 12.5202 27.9212 8.9452ZM2.66913 9.61011C2.97676 8.55534 4.07349 8.9478 4.87875 8.77914C5.44877 8.81611 6.10216 8.69935 6.64697 8.89201C7.13943 9.06586 8.47723 10.5935 8.9516 11.0548C9.74135 11.8215 10.5893 12.5487 11.3125 13.3881H3.65406C3.23785 13.3881 2.79321 13.0203 2.67107 12.6233C2.52501 12.1498 2.52953 10.0908 2.66913 9.61011ZM12.8635 17.3451H9.47056C9.31222 17.3451 8.90636 17.6526 8.84108 17.8161C8.57029 18.4881 9.24565 19.8348 7.98671 19.9425C6.56037 20.0645 4.93369 19.8699 3.48861 19.9114C3.11183 19.8024 2.82553 19.6032 2.68658 19.2244C2.52501 18.7852 2.536 17.0013 2.61678 16.4986C2.69692 16.0017 2.92635 15.6975 3.41041 15.5437L11.9277 15.5275C12.2379 15.5106 12.8635 16.0692 12.8635 16.3397V17.3451ZM12.8635 11.7664L8.62975 7.48564C8.38675 7.17881 8.30209 7.01145 8.27236 6.61185C8.22195 5.9424 8.19416 4.46338 8.28076 3.82571C8.33699 3.41185 8.72217 2.88511 9.1513 2.81829C9.42467 2.77613 9.76785 2.83192 10.0548 2.817C10.6636 2.78586 11.5244 2.68466 12.1164 2.81829C12.3704 2.87603 12.8635 3.33076 12.8635 3.5604V11.7664ZM14.9962 11.7664V3.62527C14.9962 3.17702 15.6878 2.81894 16.0794 2.7664C16.7231 2.67947 18.1203 2.71969 18.7731 2.81829C19.4607 2.92273 19.5551 3.71479 19.588 4.27072C19.6456 5.2496 19.7755 6.82592 19.1337 7.5836L14.9962 11.7664ZM25.1919 19.0486C25.0872 19.6733 24.512 19.9023 23.9498 19.9425C22.8427 20.0223 20.9039 20.0392 19.8084 19.9425C18.4525 19.8231 19.4821 18.2637 18.8422 17.604C18.8067 17.5676 18.4771 17.3451 18.4538 17.3451H15.0609V16.3397C15.0609 16.0614 15.6108 15.5145 15.932 15.5275L24.4358 15.5573C24.7389 15.6216 25.0439 15.9154 25.146 16.2067C25.2565 16.5239 25.2572 18.6574 25.1919 19.0486ZM25.1926 12.5623C25.1202 12.9191 24.5631 13.3881 24.2057 13.3881H16.5473C16.4704 13.32 17.0805 12.7491 17.1593 12.6726C18.2599 11.6139 19.5202 10.1699 20.6499 9.23517C20.8935 9.03278 21.0984 8.88747 21.4267 8.84725C22.1047 8.76357 23.7708 8.68508 24.3828 8.86412C24.7996 8.98672 25.1615 9.41745 25.2074 9.85273C25.2591 10.3386 25.2805 12.1277 25.1926 12.5623Z" fill="var(--fill-0, #006D77)"/>
</svg>
