<svg preserveAspectRatio="none" width="100%" height="100%" overflow="visible" style="display: block;" viewBox="0 0 28 25" fill="none" xmlns="http://www.w3.org/2000/svg">
<g id="Layer_1" clip-path="url(#clip0_627_62)">
<path id="Vector" d="M27.9212 8.94555C27.8507 7.92904 27.4978 7.11104 26.6241 6.54992C26.4509 6.43899 25.7975 6.12308 25.6275 6.12308H22.2992V2.39309C22.2992 1.46805 20.816 0.108393 19.8685 0.0973654C16.0813 0.293271 11.9923 -0.187411 8.24005 0.087635C7.31781 0.155099 6.47894 0.683136 5.98583 1.45768C5.87531 1.63153 5.56058 2.28735 5.56058 2.45796V6.12308H2.23224C1.29708 6.12308 -0.0329602 7.58848 0.00387767 8.55698L0 20.1699C0.148644 21.4024 1.07864 22.3943 2.30398 22.5928L9.91714 22.5941C10.451 22.5214 10.9757 21.994 11.0481 21.4588C11.0992 21.0852 10.9887 20.5954 11.0675 20.2458C11.0882 20.1556 11.2924 19.8754 11.3448 19.8754H12.8635V24.9028C12.8635 24.9099 12.9534 25.0001 12.9605 25.0001H15.0609V19.8754H16.5796C16.6714 19.8754 16.8355 20.203 16.8549 20.3126C17.0139 21.1903 16.5098 22.3359 17.8134 22.5941L25.5558 22.5928C26.849 22.3508 27.7874 21.283 27.9244 19.9753C27.735 16.3711 28.1693 12.5205 27.9212 8.94555ZM2.66913 9.61046C2.97676 8.55568 4.07349 8.94814 4.87875 8.77948C5.44877 8.81646 6.10216 8.69969 6.64697 8.89235C7.13943 9.0662 8.47723 10.5939 8.9516 11.0551C9.74135 11.8219 10.5893 12.549 11.3125 13.3884H3.65406C3.23785 13.3884 2.79321 13.0206 2.67107 12.6236C2.52501 12.1501 2.52953 10.0911 2.66913 9.61046ZM12.8635 17.3455H9.47056C9.31222 17.3455 8.90636 17.653 8.84108 17.8164C8.57029 18.4885 9.24565 19.8352 7.98671 19.9428C6.56037 20.0648 4.93369 19.8702 3.48861 19.9117C3.11183 19.8027 2.82553 19.6036 2.68658 19.2247C2.52501 18.7856 2.536 17.0017 2.61678 16.4989C2.69692 16.002 2.92635 15.6978 3.41041 15.5441L11.9277 15.5278C12.2379 15.511 12.8635 16.0695 12.8635 16.34V17.3455ZM12.8635 11.7667L8.62975 7.48599C8.38675 7.17915 8.30209 7.01179 8.27236 6.6122C8.22195 5.94274 8.19416 4.46372 8.28076 3.82606C8.33699 3.41219 8.72217 2.88545 9.1513 2.81864C9.42467 2.77647 9.76785 2.83226 10.0548 2.81734C10.6636 2.7862 11.5244 2.685 12.1164 2.81864C12.3704 2.87637 12.8635 3.3311 12.8635 3.56074V11.7667ZM14.9962 11.7667V3.62561C14.9962 3.17736 15.6878 2.81928 16.0794 2.76674C16.7231 2.67981 18.1203 2.72003 18.7731 2.81864C19.4607 2.92307 19.5551 3.71513 19.588 4.27106C19.6456 5.24994 19.7755 6.82626 19.1337 7.58394L14.9962 11.7667ZM25.1919 19.0489C25.0872 19.6736 24.512 19.9026 23.9498 19.9428C22.8427 20.0226 20.9039 20.0395 19.8084 19.9428C18.4525 19.8235 19.4821 18.264 18.8422 17.6043C18.8067 17.568 18.4771 17.3455 18.4538 17.3455H15.0609V16.34C15.0609 16.0617 15.6108 15.5149 15.932 15.5278L24.4358 15.5577C24.7389 15.6219 25.0439 15.9158 25.146 16.207C25.2565 16.5242 25.2572 18.6578 25.1919 19.0489ZM25.1926 12.5627C25.1202 12.9194 24.5631 13.3884 24.2057 13.3884H16.5473C16.4704 13.3203 17.0805 12.7495 17.1593 12.6729C18.2599 11.6143 19.5202 10.1703 20.6499 9.23551C20.8935 9.03312 21.0984 8.88781 21.4267 8.84759C22.1047 8.76391 23.7708 8.68542 24.3828 8.86446C24.7996 8.98706 25.1615 9.41779 25.2074 9.85307C25.2591 10.3389 25.2805 12.128 25.1926 12.5627Z" fill="var(--fill-0, white)"/>
</g>
<defs>
<clipPath id="clip0_627_62">
<rect width="28" height="25" fill="white"/>
</clipPath>
</defs>
</svg>
