<svg preserveAspectRatio="none" width="100%" height="100%" overflow="visible" style="display: block;" viewBox="0 0 19 15" fill="none" xmlns="http://www.w3.org/2000/svg">
<g id="twitter">
<path id="Vector" d="M16.5852 3.65158C16.5969 3.81183 16.5969 3.97212 16.5969 4.13237C16.5969 9.02022 12.7849 14.6522 5.81772 14.6522C3.67126 14.6522 1.67729 14.0455 0 12.9924C0.304972 13.0267 0.598175 13.0381 0.914881 13.0381C2.68597 13.0381 4.31637 12.4544 5.61832 11.4585C3.95276 11.4241 2.55697 10.3596 2.07606 8.89433C2.31067 8.92864 2.54524 8.95155 2.79158 8.95155C3.13172 8.95155 3.47189 8.90574 3.78856 8.82565C2.05263 8.48221 0.750643 6.99412 0.750643 5.19694V5.15117C1.25498 5.4259 1.8415 5.5976 2.4631 5.62047C1.44265 4.95653 0.77411 3.82329 0.77411 2.54121C0.77411 1.8544 0.961744 1.22482 1.29018 0.675357C3.15515 2.91897 5.95846 4.38416 9.10187 4.54445C9.04324 4.26972 9.00804 3.98357 9.00804 3.69739C9.00804 1.6598 10.6971 2.58072e-08 12.7966 2.58072e-08C13.8874 2.58072e-08 14.8727 0.446432 15.5647 1.16759C16.4209 1.00734 17.242 0.69826 17.9692 0.27473C17.6877 1.13328 17.0895 1.85444 16.3037 2.31229C17.0661 2.2322 17.805 2.0261 18.4853 1.73996C17.9693 2.47254 17.3241 3.12499 16.5852 3.65158V3.65158Z" fill="var(--fill-0, white)"/>
</g>
</svg>
