<svg preserveAspectRatio="none" width="100%" height="100%" overflow="visible" style="display: block;" viewBox="0 0 16 15" fill="none" xmlns="http://www.w3.org/2000/svg">
<g id="google-icon">
<path id="Shape" d="M15.5278 7.48905C15.5278 6.88669 15.475 6.44713 15.3606 5.99129H7.92245V8.71005H12.2885C12.2005 9.3857 11.7251 10.4032 10.6688 11.0869L10.654 11.178L13.0058 12.8628L13.1687 12.8778C14.6651 11.5998 15.5278 9.71942 15.5278 7.48905" fill="var(--fill-0, white)"/>
<path id="Shape_2" d="M7.92239 14.6522C10.0614 14.6522 11.8571 14.001 13.1687 12.8777L10.6687 11.0868C9.99977 11.5183 9.1019 11.8195 7.92239 11.8195C5.8274 11.8195 4.04931 10.5415 3.41547 8.7751L3.32256 8.7824L0.877127 10.5325L0.845146 10.6147C2.1479 13.0079 4.82387 14.6522 7.92239 14.6522" fill="var(--fill-0, white)"/>
<path id="Shape_3" d="M3.41539 8.7748C3.24814 8.31896 3.15135 7.83052 3.15135 7.32586C3.15135 6.82114 3.24814 6.33276 3.40659 5.87692L3.40216 5.77984L0.926078 4.0016L0.845065 4.03723C0.308136 5.03034 4.43459e-05 6.14555 4.43459e-05 7.32586C4.43459e-05 8.50617 0.308136 9.62133 0.845065 10.6144L3.41539 8.7748" fill="var(--fill-0, white)"/>
<path id="Shape_4" d="M7.92239 2.83273C9.40999 2.83273 10.4135 3.42696 10.9856 3.92354L13.2215 1.90478C11.8483 0.724471 10.0614 0 7.92239 0C4.82387 0 2.1479 1.64429 0.845146 4.03745L3.40667 5.87714C4.04931 4.11074 5.8274 2.83273 7.92239 2.83273" fill="var(--fill-0, white)"/>
</g>
</svg>
