<svg preserveAspectRatio="none" width="100%" height="100%" overflow="visible" style="display: block;" viewBox="0 0 20 20" fill="none" xmlns="http://www.w3.org/2000/svg">
<g id="Icon">
<path id="Vector" d="M6.66667 5V10" stroke="var(--stroke-0, #0080FF)" stroke-width="1.66667" stroke-linecap="round" stroke-linejoin="round"/>
<path id="Vector_2" d="M12.5 5V10" stroke="var(--stroke-0, #0080FF)" stroke-width="1.66667" stroke-linecap="round" stroke-linejoin="round"/>
<path id="Vector_3" d="M1.66667 10H18" stroke="var(--stroke-0, #0080FF)" stroke-width="1.66667" stroke-linecap="round" stroke-linejoin="round"/>
<path id="Vector_4" d="M15 15H17.5C17.5 15 17.9167 13.5833 18.1667 12.6667C18.25 12.3333 18.3333 12 18.3333 11.6667C18.3333 11.3333 18.25 11 18.1667 10.6667L17 6.5C16.75 5.66667 15.9167 5 15 5H3.33333C2.89131 5 2.46738 5.17559 2.15482 5.48816C1.84226 5.80072 1.66667 6.22464 1.66667 6.66667V15H4.16667" stroke="var(--stroke-0, #0080FF)" stroke-width="1.66667" stroke-linecap="round" stroke-linejoin="round"/>
<path id="Vector_5" d="M5.83333 16.6667C6.75381 16.6667 7.5 15.9205 7.5 15C7.5 14.0795 6.75381 13.3333 5.83333 13.3333C4.91286 13.3333 4.16667 14.0795 4.16667 15C4.16667 15.9205 4.91286 16.6667 5.83333 16.6667Z" stroke="var(--stroke-0, #0080FF)" stroke-width="1.66667" stroke-linecap="round" stroke-linejoin="round"/>
<path id="Vector_6" d="M7.5 15H11.6667" stroke="var(--stroke-0, #0080FF)" stroke-width="1.66667" stroke-linecap="round" stroke-linejoin="round"/>
<path id="Vector_7" d="M13.3333 16.6667C14.2538 16.6667 15 15.9205 15 15C15 14.0795 14.2538 13.3333 13.3333 13.3333C12.4129 13.3333 11.6667 14.0795 11.6667 15C11.6667 15.9205 12.4129 16.6667 13.3333 16.6667Z" stroke="var(--stroke-0, #0080FF)" stroke-width="1.66667" stroke-linecap="round" stroke-linejoin="round"/>
</g>
</svg>
