<svg preserveAspectRatio="none" width="100%" height="100%" overflow="visible" style="display: block;" viewBox="0 0 21 14" fill="none" xmlns="http://www.w3.org/2000/svg">
<g id="google-icon">
<path id="Shape" d="M20.58 7.15571C20.58 6.58016 20.5099 6.16016 20.3583 5.72461H10.5V8.32236H16.2866C16.17 8.96793 15.54 9.94016 14.14 10.5935L14.1203 10.6804L17.2374 12.2902L17.4533 12.3046C19.4366 11.0835 20.58 9.28681 20.58 7.15571" fill="var(--fill-0, white)"/>
<path id="Shape_2" d="M10.4999 14.0001C13.3349 14.0001 15.7148 13.3778 17.4532 12.3045L14.1399 10.5934C13.2532 11.0056 12.0632 11.2934 10.4999 11.2934C7.72325 11.2934 5.3666 10.0723 4.52652 8.38452L4.40338 8.39149L1.16226 10.0637L1.11987 10.1423C2.84652 12.4289 6.39319 14.0001 10.4999 14.0001" fill="var(--fill-0, white)"/>
<path id="Shape_3" d="M4.52662 8.38423C4.30496 7.94868 4.17667 7.48198 4.17667 6.99978C4.17667 6.51753 4.30496 6.05088 4.51496 5.61533L4.50909 5.52257L1.22735 3.82349L1.11997 3.85753C0.408338 4.80643 0 5.87201 0 6.99978C0 8.12756 0.408338 9.19308 1.11997 10.142L4.52662 8.38423" fill="var(--fill-0, white)"/>
<path id="Shape_4" d="M10.4999 2.70665C12.4715 2.70665 13.8015 3.27442 14.5599 3.7489L17.5232 1.82C15.7032 0.692225 13.3349 0 10.4999 0C6.39319 0 2.84652 1.5711 1.11987 3.85775L4.51486 5.61555C5.3666 3.92777 7.72325 2.70665 10.4999 2.70665" fill="var(--fill-0, white)"/>
</g>
</svg>
