<svg preserveAspectRatio="none" width="100%" height="100%" overflow="visible" style="display: block;" viewBox="0 0 914 527" fill="none" xmlns="http://www.w3.org/2000/svg">
<g id="Icon" clip-path="url(#clip0_627_224)">
<path id="Vector" opacity="0.6" d="M0 263.5C152.333 245.933 304.667 254.717 457 289.85C609.333 324.983 761.667 316.2 914 263.5V527H0V263.5Z" fill="url(#paint0_linear_627_224)"/>
<path id="Vector_2" opacity="0.4" d="M0 263.5C152.333 245.933 304.667 254.717 457 289.85C609.333 324.983 761.667 316.2 914 263.5V0H0V263.5Z" fill="url(#paint1_linear_627_224)"/>
<path id="Vector_3" opacity="0.15" d="M0 210.8L182.8 79.05L319.9 158.1L457 52.7L594.1 131.75L731.2 79.05L914 184.45V527H0V210.8Z" fill="url(#paint2_linear_627_224)"/>
</g>
<defs>
<linearGradient id="paint0_linear_627_224" x1="0" y1="254.717" x2="0" y2="27483.1" gradientUnits="userSpaceOnUse">
<stop stop-color="#FEF3C7"/>
<stop offset="1" stop-color="#FDE68A"/>
</linearGradient>
<linearGradient id="paint1_linear_627_224" x1="0" y1="0" x2="0" y2="31093" gradientUnits="userSpaceOnUse">
<stop stop-color="#7DD3FC"/>
<stop offset="1" stop-color="#0EA5E9"/>
</linearGradient>
<linearGradient id="paint2_linear_627_224" x1="0" y1="52.7" x2="0" y2="47482.7" gradientUnits="userSpaceOnUse">
<stop stop-color="#059669"/>
<stop offset="1" stop-color="#10B981"/>
</linearGradient>
<clipPath id="clip0_627_224">
<rect width="914" height="527" fill="white"/>
</clipPath>
</defs>
</svg>
